<svg width="1109" height="901" xmlns="http://www.w3.org/2000/svg">

 <g>
  <title>background</title>
  <rect fill="none" id="canvas_background" height="6692" width="7062" y="-1" x="-1"/>
 </g>
 <g>
  <title>Layer 1</title>
  <g id="svg_1" stroke-width="0.5" fill-rule="evenodd">
   <path id="svg_2" stroke="#ffffff" fill="#ffffff" d="m741,0.2l0,-0.2l52,0l19,3.8q19,3.7 34.5,9.7t30,14t26.3,16.3q11.7,8.2 21,17.4q9.2,9.3 28.7,4.8t42,-12.5t44.5,-18t26.8,-12.7q4.7,-2.8 5,-3l0.2,-0.3l1,-0.5l1,-0.5l1,-0.5l1,-0.5l0.2,-0.3l0.3,-0.2l0.3,-0.2l0.2,-0.3l1,-0.3l1,-0.2l-0.2,1.5l-0.3,1.5l-0.5,1.5l-0.5,1.5l-0.5,1l-0.5,1l-0.5,1.5q-0.5,1.5 -1,4t-9.5,20t-22.5,35.5t-24.2,27.2q-10.8,9.3 -14.3,13q-3.5,3.8 -8.5,7l-5,3.3l-1,0.5l-1,0.5l-0.2,0.3l-0.3,0.2l-0.3,0.2l-0.2,0.3l-1,0.5l-1,0.5l-0.2,0.3l-0.3,0.2l-0.3,0.2l-0.2,0.3l-0.2,0.3l-0.3,0.2l-0.3,0.2l-0.2,0.3l5,0l28,-6q28,-6 53.5,-14.5t27,-9t3,-1l1.5,-0.5l1,-0.5l1,-0.5l1,-0.5l1,-0.5l2,-0.3l2,-0.2l0,2l-0.5,0.2l-0.5,0.3l-0.2,0.3l-0.3,0.2l-0.3,0.2l-0.2,0.3l-0.2,0.3l-0.3,0.2l-0.3,0.2l-0.2,0.3l-0.2,0.3l-0.3,0.2l-0.5,1l-0.5,1l-0.3,0.2q-0.2,0.3 -12.7,17q-12.5,16.8 -13.5,17q-1,0.3 -2.8,3q-1.7,2.8 -21.2,22.3t-38.2,34.7q-18.8,15.3 -19,37.6q-0.3,22.2 -2.3,50.2t-7.5,60.5t-17,73.5t-28,80t-34.5,70t-33,52.5t-30.5,40.5t-39.2,42.8q-23.8,23.7 -26,26q-2.3,2.2 -19.6,16.4q-17.2,14.3 -37,28.6q-19.7,14.2 -36.2,23.7t-39.8,21.7q-23.2,12.3 -50.2,22.8t-57,19.5t-58,14t-63.5,8.5l-35.5,3.5l0,0.5l-65,0l0,-0.5l-8.5,-0.5q-8.5,-0.5 -14,-1t-41.5,-5.5t-56.5,-10t-61,-19t-69.3,-28.3q-28.7,-14.2 -36,-18q-7.2,-3.7 -16.2,-9.2l-9,-5.5l-0.2,-0.3l-0.3,-0.2l-0.3,-0.2l-0.2,-0.3l-1,-0.5l-1,-0.5l-0.2,-0.3l-0.3,-0.2l-0.3,-0.2l-0.2,-0.3l-0.2,-0.3l-0.3,-0.2l-0.5,0l0,-2l1,0.2l1,0.3l4.5,0.5q4.5,0.5 24.5,1.5t42.5,0t46,-4.5t55.5,-12t58.8,-20.2q26.7,-11.8 38,-17.6q11.2,-5.7 34.2,-21.2l23,-15.5l0.2,-0.3l0.3,-0.2l0.3,-0.2l0.2,-0.3l0.2,-0.3l0.3,-0.2l0.3,-0.2l0.2,-0.3l1,-0.3l1,-0.2l0.2,-1l0.3,-1l0.3,-0.2l0.2,-0.3l-8,-0.5q-8,-0.5 -15.5,-1t-23.5,-4.5t-34.5,-12t-36,-19t-25.3,-18.3q-7.7,-7.2 -20,-20.4q-12.2,-13.3 -21.2,-27.3t-17.2,-32.3l-8.3,-18.2l-0.5,-1.5l-0.5,-1.5l-0.3,-1l-0.2,-1l1.5,0.2l1.5,0.3l11,1.5q11,1.5 34.5,1t32.5,-2t11,-2l2,-0.5l2.5,-0.5l2.5,-0.5l0.2,-0.3l0.3,-0.2l0.3,-0.2l0.2,-0.3l-2,-0.5l-2,-0.5l-2,-0.5l-2,-0.5l-2,-0.5q-2,-0.5 -7,-2t-27,-11t-35,-18.5t-24.8,-19.7q-11.7,-10.8 -25.7,-27.8t-25,-39.5t-16.5,-43t-7.2,-41.5l-1.8,-21l1,0.2l1,0.3l1,0.5l1,0.5l1,0.5l1,0.5l15.5,7q15.5,7 38.5,12t27.5,5.5l4.5,0.5l9,0l-0.2,-0.3l-0.3,-0.2l-0.3,-0.2l-0.2,-0.3l-0.2,-0.3l-0.3,-0.2l-0.3,-0.2l-0.2,-0.3l-1,-0.5l-1,-0.5l-0.2,-0.3l-0.3,-0.2l-0.3,-0.2l-0.2,-0.3l-1,-0.5l-1,-0.5l-0.2,-0.3q-0.3,-0.2 -8.6,-6.4q-8.2,-6.3 -17.2,-16.3t-18,-21t-16,-23.5t-14.8,-31.8q-7.7,-19.2 -11.7,-38.7t-4.5,-38.5t1,-32.5t6,-30.5t13,-36l8.5,-19l0.5,-1.5l0.5,-1.5l0.3,-0.2l0.2,-0.3l0.2,-0.3l0.3,-0.2l0.3,0.2l0.2,0.3l0.2,0.3l0.3,0.2l0.3,0.2l0.2,0.3l0.2,0.3l0.3,0.2l0.5,1l0.5,1l0.3,0.2l0.2,0.3l13.5,15q13.5,15 32,33.5t20.5,19.2q2,0.8 5,4.6q3,3.7 20,17.7t44.5,32.5t61,36.5t72,32.5t54,19t53,11.5t56.5,9t26,2.3l7,0.2l-0.2,-1.5l-0.3,-1.5l-2,-12.5q-2,-12.5 -2,-35t3.5,-41.5t10.5,-38.5t13.7,-31.3q6.8,-11.7 17.8,-26.7t28.5,-31t40,-28.5t41.5,-19t32,-8.5t13,-2.3z"/>
  </g>
 </g>
</svg>